<svg width="18" height="12" viewBox="0 0 18 12" fill="none" xmlns="http://www.w3.org/2000/svg">
<path d="M16.3927 11.3922C16.7973 11.3922 17.1479 11.2855 17.4459 11.0747L12.3462 6.99988C12.2239 7.06988 12.1053 7.13795 11.9932 7.20269C11.6116 7.42735 11.3019 7.60266 11.064 7.72829C10.8262 7.8542 10.5098 7.98253 10.1148 8.11356C9.7196 8.24475 9.35139 8.31013 9.00982 8.31013H8.99982H8.98982C8.64821 8.31013 8.28 8.24477 7.8848 8.11356C7.4896 7.98253 7.1732 7.8542 6.93561 7.72829C6.6978 7.60266 6.38822 7.42738 6.00639 7.20269C5.89998 7.14036 5.78197 7.07197 5.65439 6.99878L0.553711 11.0747C0.851721 11.2855 1.20254 11.3922 1.60712 11.3922H16.3927Z" fill="#EF4123"/>
<path d="M1.01462 4.69345C0.633016 4.49017 0.294612 4.25736 0 3.99512V10.1947L4.49487 6.60325C3.59564 6.10164 2.43703 5.46577 1.01462 4.69345Z" fill="#EF4123"/>
<path d="M16.9955 4.69345C15.6274 5.43334 14.4646 6.07031 13.507 6.60468L18 10.1948V3.99512C17.7119 4.25208 17.3772 4.48474 16.9955 4.69345Z" fill="#EF4123"/>
<path d="M16.3929 0H1.6074C1.09158 0 0.695011 0.139175 0.417199 0.417238C0.139158 0.695431 0.000366211 1.04334 0.000366211 1.46058C0.000366211 1.7976 0.18455 2.16277 0.552755 2.5562C0.92096 2.94946 1.31276 3.25837 1.72796 3.48306C1.95557 3.61155 2.64198 3.99283 3.78719 4.62677C4.4054 4.96907 4.94301 5.26742 5.40501 5.52488C5.7988 5.74411 6.13841 5.93397 6.41881 6.09153C6.451 6.10957 6.50162 6.1385 6.56881 6.17689C6.64119 6.21843 6.7328 6.27115 6.8458 6.33635C7.06342 6.4621 7.2442 6.56376 7.38819 6.64141C7.53198 6.71909 7.7062 6.80586 7.91058 6.90222C8.1148 6.99844 8.30741 7.07079 8.4882 7.11892C8.66902 7.16701 8.8364 7.19114 8.99039 7.19114H9.00039H9.01039C9.16435 7.19114 9.33177 7.16701 9.51262 7.11892C9.69337 7.07079 9.88582 6.99859 10.0902 6.90222C10.2944 6.80586 10.4684 6.71891 10.6126 6.64141C10.7566 6.56376 10.9374 6.46213 11.155 6.33635C11.2678 6.27115 11.3594 6.21841 11.4318 6.17702C11.499 6.13848 11.5496 6.10973 11.582 6.09153C11.8004 5.97008 12.1408 5.78101 12.5985 5.5271C13.4312 5.06479 14.6576 4.38435 16.2829 3.48306C16.7717 3.21027 17.1801 2.88108 17.5083 2.49596C17.8359 2.11084 18.0001 1.70686 18.0001 1.28417C18.0001 0.93101 17.8409 0.62882 17.5231 0.37713C17.2049 0.125754 16.8281 0 16.3929 0Z" fill="#EF4123"/>
</svg>
