<svg width="14" height="19" viewBox="0 0 14 19" fill="none" xmlns="http://www.w3.org/2000/svg">
<path d="M6.99971 0C3.14026 0 0 3.13802 0 6.99511C0 8.00119 0.206068 8.96177 0.612173 9.8504C2.36229 13.6773 5.71776 17.7178 6.70471 18.8649C6.77866 18.9506 6.88646 19 6.9999 19C7.11335 19 7.22115 18.9506 7.29509 18.8649C8.28165 17.718 11.6371 13.6777 13.3878 9.8504C13.7941 8.96177 14 8.00119 14 6.99511C13.9996 3.13802 10.8594 0 6.99971 0ZM6.99971 10.6284C4.99487 10.6284 3.36364 8.99832 3.36364 6.99491C3.36364 4.99131 4.99487 3.36125 6.99971 3.36125C9.00455 3.36125 10.6358 4.99131 10.6358 6.99491C10.636 8.99832 9.00474 10.6284 6.99971 10.6284Z" fill="#EF4123"/>
</svg>
